<svg width="920" height="520" viewBox="0 0 920 520" fill="none" xmlns="http://www.w3.org/2000/svg">
  <rect width="920" height="520" rx="28" fill="#FFF9F0"/>
  <rect x="36" y="36" width="848" height="448" rx="24" fill="#FFFFFF" stroke="#E6ECF5" stroke-width="2"/>
  <rect x="76" y="78" width="180" height="84" rx="20" fill="#E6F0FF"/>
  <text x="96" y="112" fill="#1D2733" font-family="Arial, sans-serif" font-size="18" font-weight="700">MSP / Client Entry</text>
  <text x="98" y="138" fill="#53616F" font-family="Arial, sans-serif" font-size="14">Approved access path</text>

  <rect x="332" y="78" width="256" height="96" rx="20" fill="#DFF7F2"/>
  <text x="362" y="116" fill="#1D2733" font-family="Arial, sans-serif" font-size="20" font-weight="700">OPNsense Firewall</text>
  <text x="362" y="144" fill="#53616F" font-family="Arial, sans-serif" font-size="14">Routing, NAT, segmentation, VPN</text>

  <rect x="664" y="78" width="176" height="84" rx="20" fill="#FFF0D8"/>
  <text x="680" y="112" fill="#1D2733" font-family="Arial, sans-serif" font-size="18" font-weight="700">Site-to-Site VPN</text>
  <text x="685" y="138" fill="#53616F" font-family="Arial, sans-serif" font-size="14">Protection path</text>

  <rect x="106" y="240" width="214" height="112" rx="22" fill="#F3F7FB"/>
  <text x="128" y="278" fill="#1D2733" font-family="Arial, sans-serif" font-size="20" font-weight="700">Shared Compute</text>
  <text x="132" y="308" fill="#53616F" font-family="Arial, sans-serif" font-size="14">Proxmox VE and tenant workloads</text>
  <text x="132" y="332" fill="#53616F" font-family="Arial, sans-serif" font-size="14">Windows and Linux service delivery</text>

  <rect x="354" y="240" width="214" height="112" rx="22" fill="#F3F7FB"/>
  <text x="382" y="278" fill="#1D2733" font-family="Arial, sans-serif" font-size="20" font-weight="700">Monitoring</text>
  <text x="382" y="308" fill="#53616F" font-family="Arial, sans-serif" font-size="14">Grafana, InfluxDB, validation notes</text>
  <text x="382" y="332" fill="#53616F" font-family="Arial, sans-serif" font-size="14">Operational visibility and checks</text>

  <rect x="602" y="240" width="214" height="112" rx="22" fill="#F3F7FB"/>
  <text x="622" y="278" fill="#1D2733" font-family="Arial, sans-serif" font-size="20" font-weight="700">Storage + Recovery</text>
  <text x="630" y="308" fill="#53616F" font-family="Arial, sans-serif" font-size="14">SAN transport, Veeam workflows,</text>
  <text x="630" y="332" fill="#53616F" font-family="Arial, sans-serif" font-size="14">backup copy and recovery checks</text>

  <rect x="230" y="392" width="216" height="70" rx="18" fill="#EAF2FF"/>
  <text x="252" y="424" fill="#1D2733" font-family="Arial, sans-serif" font-size="18" font-weight="700">Admin Tooling</text>
  <text x="246" y="448" fill="#53616F" font-family="Arial, sans-serif" font-size="14">Jump paths, WAC, Cockpit</text>

  <rect x="492" y="392" width="216" height="70" rx="18" fill="#E7F8F4"/>
  <text x="510" y="424" fill="#1D2733" font-family="Arial, sans-serif" font-size="18" font-weight="700">Validation Logic</text>
  <text x="504" y="448" fill="#53616F" font-family="Arial, sans-serif" font-size="14">PowerShell, runbooks, triage</text>

  <path d="M256 120H332" stroke="#1A73E8" stroke-width="4" stroke-linecap="round"/>
  <path d="M588 120H664" stroke="#1A73E8" stroke-width="4" stroke-linecap="round"/>
  <path d="M460 174V216" stroke="#0F8F85" stroke-width="4" stroke-linecap="round"/>
  <path d="M460 216H214V240" stroke="#0F8F85" stroke-width="4" stroke-linecap="round"/>
  <path d="M460 216V240" stroke="#0F8F85" stroke-width="4" stroke-linecap="round"/>
  <path d="M460 216H708V240" stroke="#0F8F85" stroke-width="4" stroke-linecap="round"/>
  <path d="M214 352V392H338" stroke="#D9992E" stroke-width="4" stroke-linecap="round"/>
  <path d="M708 352V392H600" stroke="#D9992E" stroke-width="4" stroke-linecap="round"/>
  <path d="M460 352V392" stroke="#D9992E" stroke-width="4" stroke-linecap="round"/>
</svg>
