<svg width="920" height="520" viewBox="0 0 920 520" fill="none" xmlns="http://www.w3.org/2000/svg">
  <rect width="920" height="520" rx="28" fill="#FFF9F0"/>
  <rect x="36" y="36" width="848" height="448" rx="24" fill="#FFFFFF" stroke="#E6ECF5" stroke-width="2"/>
  <rect x="76" y="78" width="180" height="84" rx="20" fill="#E6F0FF"/>
  <text x="102" y="112" fill="#1D2733" font-family="Arial, sans-serif" font-size="18" font-weight="700">Internet / ISP</text>
  <text x="102" y="138" fill="#53616F" font-family="Arial, sans-serif" font-size="14">External connectivity</text>

  <rect x="332" y="78" width="256" height="96" rx="20" fill="#DFF7F2"/>
  <text x="362" y="116" fill="#1D2733" font-family="Arial, sans-serif" font-size="20" font-weight="700">OPNsense Firewall</text>
  <text x="362" y="144" fill="#53616F" font-family="Arial, sans-serif" font-size="14">Routing, NAT, segmentation, VPN</text>

  <rect x="664" y="78" width="176" height="84" rx="20" fill="#FFF0D8"/>
  <text x="688" y="112" fill="#1D2733" font-family="Arial, sans-serif" font-size="18" font-weight="700">Remote Access</text>
  <text x="688" y="138" fill="#53616F" font-family="Arial, sans-serif" font-size="14">OpenVPN entry point</text>

  <rect x="106" y="240" width="214" height="112" rx="22" fill="#F3F7FB"/>
  <text x="132" y="278" fill="#1D2733" font-family="Arial, sans-serif" font-size="20" font-weight="700">Proxmox Host</text>
  <text x="132" y="308" fill="#53616F" font-family="Arial, sans-serif" font-size="14">VMs, containers, admin workloads</text>
  <text x="132" y="332" fill="#53616F" font-family="Arial, sans-serif" font-size="14">Windows and Linux lab services</text>

  <rect x="354" y="240" width="214" height="112" rx="22" fill="#F3F7FB"/>
  <text x="382" y="278" fill="#1D2733" font-family="Arial, sans-serif" font-size="20" font-weight="700">Monitoring</text>
  <text x="382" y="308" fill="#53616F" font-family="Arial, sans-serif" font-size="14">Grafana, InfluxDB, validation notes</text>
  <text x="382" y="332" fill="#53616F" font-family="Arial, sans-serif" font-size="14">Operational visibility and checks</text>

  <rect x="602" y="240" width="214" height="112" rx="22" fill="#F3F7FB"/>
  <text x="630" y="278" fill="#1D2733" font-family="Arial, sans-serif" font-size="20" font-weight="700">Backup Layer</text>
  <text x="630" y="308" fill="#53616F" font-family="Arial, sans-serif" font-size="14">Veeam concepts, NAS workflows,</text>
  <text x="630" y="332" fill="#53616F" font-family="Arial, sans-serif" font-size="14">health checks and recovery thinking</text>

  <rect x="230" y="392" width="216" height="70" rx="18" fill="#EAF2FF"/>
  <text x="260" y="424" fill="#1D2733" font-family="Arial, sans-serif" font-size="18" font-weight="700">Admin Services</text>
  <text x="260" y="448" fill="#53616F" font-family="Arial, sans-serif" font-size="14">Windows Admin Center, Cockpit</text>

  <rect x="492" y="392" width="216" height="70" rx="18" fill="#E7F8F4"/>
  <text x="524" y="424" fill="#1D2733" font-family="Arial, sans-serif" font-size="18" font-weight="700">Automation</text>
  <text x="524" y="448" fill="#53616F" font-family="Arial, sans-serif" font-size="14">Ansible, PowerShell, runbooks</text>

  <path d="M256 120H332" stroke="#1A73E8" stroke-width="4" stroke-linecap="round"/>
  <path d="M588 120H664" stroke="#1A73E8" stroke-width="4" stroke-linecap="round"/>
  <path d="M460 174V216" stroke="#0F8F85" stroke-width="4" stroke-linecap="round"/>
  <path d="M460 216H214V240" stroke="#0F8F85" stroke-width="4" stroke-linecap="round"/>
  <path d="M460 216V240" stroke="#0F8F85" stroke-width="4" stroke-linecap="round"/>
  <path d="M460 216H708V240" stroke="#0F8F85" stroke-width="4" stroke-linecap="round"/>
  <path d="M214 352V392H338" stroke="#D9992E" stroke-width="4" stroke-linecap="round"/>
  <path d="M708 352V392H600" stroke="#D9992E" stroke-width="4" stroke-linecap="round"/>
  <path d="M460 352V392" stroke="#D9992E" stroke-width="4" stroke-linecap="round"/>
</svg>
